# xmcd
#
# Track frame offsets: 
#        150
#        18643
#        31563
#        47267
#        63996
#        81749
#        99117
#        114549
#        128087
#        144393
#        161720
#        178046
#        192500
#        216839
#        239226
#        255573
#        274141
#        290699
#        304801
#
# Disc length: 4346 seconds
#
# Revision: 3
# Processed by: cddbd v1.5.2PL0 Copyright (c) Steve Scherf et al.
# Submitted via: ExactAudioCopyFreeDBPlugin 1.0
#
DISCID=1710f813
DTITLE=Various Artist - Maximum Hit Power Vol.2
DYEAR=2002
DGENRE=Pop
TTITLE0=Kylie Minogue - Love At First Sight
TTITLE1=Jennifer Lopez - I'm Gonna Be Alright
TTITLE2=Enrique Iglesias - Escape
TTITLE3=Shakira - Underneath Your Clothes
TTITLE4=Ashanti - Foolish
TTITLE5=Nelly - Hot In Here
TTITLE6=Holly Valance - Kiss Kiss
TTITLE7=Sugababes - Freak Like Me
TTITLE8=Red Hot Chili Peppers - By The Way
TTITLE9=Dido - All You Want
TTITLE10=Ronan Keating - If Tomorow Never Comes
TTITLE11=Anastasia - Boom
TTITLE12=Mary J. Blige - No More Drama
TTITLE13=Oasis - Stop Crying Your Heart Out
TTITLE14=Mad'House - Like a Prayer
TTITLE15=Robbie Williams - One For My Baby
TTITLE16=Brandy - Full Moon
TTITLE17=Britney Spears - I Love Rock'N'Roll
TTITLE18=Eminem - Without Me
EXTD=
EXTT0=
EXTT1=
EXTT2=
EXTT3=
EXTT4=
EXTT5=
EXTT6=
EXTT7=
EXTT8=
EXTT9=
EXTT10=
EXTT11=
EXTT12=
EXTT13=
EXTT14=
EXTT15=
EXTT16=
EXTT17=
EXTT18=
PLAYORDER=
